REM DIRINDEX 1\2,1\3
REM DIRNAME folder01,folder02,folder03
TITLE ""
FILE "Disk1Track06.mp3" MP3
  TRACK 01 AUDIO
    TITLE "2:cjc052_0034"
    INDEX 01 00:00:00
  TRACK 02 AUDIO
    TITLE "2:cjc052_0035"
    INDEX 01 00:10:63
  TRACK 03 AUDIO
    TITLE "2:cjc052_0036"
    INDEX 01 00:20:34
  TRACK 04 AUDIO
    TITLE "2:cjc052_0037"
    INDEX 01 00:26:62
  TRACK 05 AUDIO
    TITLE "2:cjc052_0038"
    INDEX 01 00:35:53
  TRACK 06 AUDIO
    TITLE "0:"
    INDEX 01 00:51:09
